<svg fill="none" height="206" viewBox="0 0 500 206" width="500" xmlns="http://www.w3.org/2000/svg"><g clip-rule="evenodd" fill="#333" fill-rule="evenodd"><path d="m171.127 192.227c-2.391-.095-5.211-.445-8.38-1.038h-.002c-3.306-.612-6.101-1.478-8.296-2.568-2.946-1.526-12.325-7.207-20.539-19.858-2.195-3.381-36.4273-56.497-36.4273-56.497s22.8963-6.289 33.7683-17.2584c4.086-4.1216 7.525-8.768 9.746-14.2971 2.19-5.4941 3.299-11.8839 3.299-18.9917 0-7.8943-1.641-14.75-4.878-20.3785-3.218-5.604-7.605-10.2274-13.041-13.7465-5.587-3.5482-11.891-6.1615-18.736-7.7668-6.848-1.5946-14.2702-2.4041-22.0594-2.4041h-85.5816v11.4524l52.7375.181h22.0761c11.4629 0 20.4573 3.2289 26.7304 9.5958 6.255 6.3807 9.427 15.1548 9.427 26.078 0 12.9118-3.954 23.2553-11.753 30.7403-7.8154 7.4916-17.7329 11.2916-29.4793 11.2916h-17.5613v12.172h18.9971l49.7975 83.529h50.694v-10.215z"/><path d="m296.414 190.555c-2.946 0-5.852-.041-8.64-.122-2.634-.073-4.668-.493-5.889-1.221-2.364-1.333-4.057-2.916-5.18-4.842-1.114-1.9-1.678-4.508-1.678-7.752 0-10.809.144-21.31.429-31.21.271-9.537.409-20.584.409-32.833 0-8.634-1.171-15.8243-3.479-21.3741-2.356-5.594-5.719-9.9219-10.275-13.2264-4.448-3.3038-9.484-5.4994-14.972-6.5266-5.499-.9798-11.941-1.4762-19.145-1.4762-5.297 0-10.826.8607-16.432 2.5576-5.588 1.6977-10.392 3.791-14.288 6.2234-4.584 2.9165-8.328 6.2401-11.126 9.8753-2.881 3.6986-4.341 7.6599-4.341 11.775 0 3.882 1.05 7.46 3.125 10.635 2.142 3.22 5.512 4.853 10.017 4.853 4.949 0 8.889-1.316 11.71-3.911 2.834-2.608 4.271-5.551 4.271-8.749 0-2.907-.42-6.0984-1.248-9.4839-.779-3.264-1.176-5.672-1.209-7.3498 1.385-1.3655 3.693-2.6859 6.868-3.9285 3.323-1.3044 6.998-1.9657 10.925-1.9657 5.664 0 10.088 1.1585 13.148 3.4412 3.061 2.3125 5.491 5.0702 7.217 8.1891 1.53 2.8478 2.509 5.7659 2.994 8.9196.579 3.79.7 5.577.7 6.411 0 0 .227 71.952.227 76.743 0 7.027 3.827 12.664 7.967 15.886 4.138 3.212 9.723 4.842 16.599 4.842 3.971 0 7.557-.463 10.663-1.379 2.985-.879 6.526-2.051 10.821-3.582l.372-.133v-9.286z"/><path d="m234.975 13.2707c3.771.4315 6.562 1.3121 8.299 2.6142l.021.0152c2.108 1.435 3.779 3.4611 5.105 6.1959 1.318 2.7287 1.987 5.6796 1.987 8.7718v33.7264c.588.0909 1.172.1833 1.741.2849 5.488 1.0272 10.523 3.2228 14.971 6.5273 3.692 2.676 6.588 6.0393 8.812 10.1893v-77.95826c0-.92942-.357-1.82371-.999-2.49881-.739-.780503-1.786-1.1944271-2.861-1.13256761l-46.917 2.70501761v9.62712l.518.039c2.546.1909 5.771.4995 9.323.8935z"/><path d="m242.831 182.556c-1.492 1.236-3.075 2.436-4.889 3.604-4.539 2.916-9.89 4.396-15.907 4.396-5.711 0-10.281-1.616-13.973-4.937-3.614-3.244-5.445-8.446-5.445-15.461 0-5.416 1.24-10.164 3.685-14.107 2.512-3.967 5.935-7.432 10.162-10.294 4.79-3.124 9.975-5.73 15.413-7.741 3.437-1.28 7.136-2.537 10.954-3.765v-10.935c-4.192 1.662-9.627 3.609-16.205 5.798-11.117 3.71-19.534 6.617-23.704 8.188h-.005c-3.055 1.179-6.445 2.825-10.069 4.894-3.533 1.999-6.469 4.368-8.718 7.03-2.784 3.143-4.913 6.74-6.33 10.695-1.403 3.932-2.114 8.448-2.114 13.426 0 9.617 3.167 17.511 9.412 23.463 6.243 5.953 14.315 8.972 23.989 8.972 9.096 0 16.992-1.708 23.469-5.076 3.542-1.863 6.983-4.195 10.275-6.905z"/><path d="m499.439 190.555c-2.945 0-5.851-.041-8.639-.122-2.635-.073-4.668-.493-5.89-1.221-2.363-1.333-4.057-2.916-5.179-4.842-1.114-1.9-1.679-4.508-1.679-7.752 0-10.809.144-21.31.429-31.21.271-9.537.409-20.584.409-32.833 0-8.634-1.171-15.8243-3.479-21.3741-2.356-5.594-5.718-9.9219-10.275-13.2264-4.448-3.3038-9.483-5.4994-14.972-6.5266-5.499-.9798-11.94-1.4762-19.145-1.4762-5.297 0-10.826.8607-16.433 2.5576-5.586 1.6977-10.391 3.791-14.286 6.2234-4.584 2.9165-8.328 6.2401-11.128 9.8753-2.88 3.6986-4.34 7.6599-4.34 11.775 0 3.882 1.05 7.46 3.125 10.635 2.142 3.22 5.513 4.853 10.018 4.853 4.948 0 8.889-1.316 11.71-3.911 2.834-2.608 4.271-5.551 4.271-8.749 0-2.907-.421-6.0984-1.248-9.4839-.779-3.264-1.176-5.672-1.209-7.3498 1.383-1.3655 3.693-2.6859 6.867-3.9285 3.324-1.3044 6.998-1.9657 10.925-1.9657 5.664 0 10.088 1.1585 13.148 3.4412 3.062 2.3125 5.491 5.0702 7.218 8.1891 1.529 2.8478 2.508 5.7659 2.995 8.9196.577 3.79.698 5.577.698 6.411 0 0 .227 71.952.227 76.743 0 7.027 3.828 12.664 7.968 15.886 4.138 3.212 9.723 4.842 16.599 4.842 3.97 0 7.556-.463 10.662-1.379 2.985-.879 6.526-2.051 10.822-3.582l.371-.133v-9.286z"/><path d="m445.857 182.556c-1.492 1.236-3.075 2.436-4.889 3.604-4.54 2.916-9.89 4.396-15.907 4.396-5.712 0-10.282-1.616-13.974-4.937-3.613-3.244-5.445-8.446-5.445-15.461 0-5.416 1.241-10.164 3.687-14.107 2.511-3.967 5.933-7.432 10.162-10.294 4.789-3.124 9.974-5.73 15.411-7.741 3.437-1.28 7.137-2.537 10.955-3.765v-10.935c-4.192 1.662-9.627 3.609-16.205 5.798-11.117 3.71-19.534 6.617-23.704 8.188h-.005c-3.056 1.179-6.445 2.825-10.07 4.894-3.533 1.999-6.468 4.368-8.718 7.03-2.783 3.143-4.912 6.74-6.33 10.695-1.402 3.932-2.114 8.448-2.114 13.426 0 9.617 3.167 17.511 9.413 23.463 6.244 5.953 14.314 8.972 23.988 8.972 9.096 0 16.992-1.708 23.47-5.076 3.542-1.863 6.982-4.195 10.275-6.905z"/><path d="m373.919 192.768c-19.213 0-27.348-11.501-34.111-21.81-3.647-5.56-30.891-47.251-30.891-47.251s12.705-11.908 16.401-15.69c3.9-3.942 6.778-6.685 8.811-8.3942 2.917-2.5889 7.182-5.5498 12.677-8.7978 5.479-3.222 11.916-5.9629 19.137-8.1479l.397-.1199v-8.9864h-57.454v9.6234l.49.061c3.473.43 6.992 1.18 10.763 2.2934 3.545 1.0654 5.267 2.5767 5.267 4.6242 0 .6255-.392 1.5457-1.16 2.7257-.838 1.2371-1.584 2.2345-2.211 2.9593-5.349 6.0042-11.987 12.9182-19.726 20.5502-6.869 6.745-13.257 13.075-19.226 19.002v11.401l8.315-7.736 38.232 63.388h44.816v-9.665z"/></g></svg>